<!-- Generated by IcoMoon.io -->
<svg version="1.1" xmlns="http://www.w3.org/2000/svg" width="32" height="32" viewBox="0 0 32 32">
<title>linkedin</title>
<path d="M21.688 9h-11.375c-0.722 0-1.313 0.591-1.313 1.313v11.375c0 0.722 0.591 1.313 1.313 1.313h11.375c0.722 0 1.313-0.591 1.313-1.313v-11.375c0-0.722-0.591-1.313-1.313-1.313zM14.25 20.375h-1.75v-6.125h1.75v6.125zM13.375 13.375c-0.484 0-0.875-0.391-0.875-0.875s0.391-0.875 0.875-0.875c0.484 0 0.875 0.391 0.875 0.875s-0.391 0.875-0.875 0.875zM20.375 20.375h-1.75v-3.5c0-0.484-0.391-0.875-0.875-0.875s-0.875 0.391-0.875 0.875v3.5h-1.75v-6.125h1.75v1.086c0.361-0.495 0.913-1.086 1.531-1.086 1.088 0 1.969 0.979 1.969 2.188v3.938z"></path>
</svg>
